<svg width="128" height="128" version="1.1" viewBox="0 0 33.867 33.867" xmlns="http://www.w3.org/2000/svg">
	<g>
		<path d="m33.867 16.933a16.933 16.933 0 0 1-16.933 16.933 16.933 16.933 0 0 1-16.933-16.933 16.933 16.933 0 0 1 16.933-16.933 16.933 16.933 0 0 1 16.933 16.933z" color="#000000" fill="#fff" opacity=".995" stroke-linecap="round" stroke-linejoin="round" stroke-width="11.977" style="-inkscape-stroke:none" />
		<g fill="#252336" stroke-width=".42145" aria-label="D">
			<path transform="scale(.26458)" d="m41.436 29-15.791 15.791c-4.8044 4.8044-7.8119 9.8189-9.0234 15.041-1.2533 5.1803-0.98196 10.255 0.81445 15.227 1.7129 4.9715 4.6168 9.5035 8.7109 13.598 4.5119 4.5119 9.338 7.5421 14.477 9.0879 5.0968 1.5875 10.194 1.6704 15.291 0.25 2.804-0.78146 5.4969-2.0141 8.0859-3.6934 2.5887 1.6788 5.2843 2.912 8.0879 3.6934 5.0968 1.4204 10.194 1.3375 15.291-0.25 5.1386-1.5458 9.9627-4.576 14.475-9.0879 4.0941-4.0941 6.9981-8.6262 8.7109-13.598 1.7964-4.9715 2.0678-10.046 0.81446-15.227-1.2115-5.2221-4.2191-10.237-9.0234-15.041l-15.793-15.791-22.564 22.564-22.562-22.564zm-0.8125 13.221 16.357 16.361-14.91 14.91 14.555 14.555c-0.89188 0.34662-1.7988 0.61484-2.7188 0.79883-3.5928 0.75199-7.1657 0.48064-10.717-0.81445-3.551-1.2951-6.8507-3.4698-9.9004-6.5195-3.1333-3.1333-5.3041-6.4743-6.5156-10.025-1.2951-3.551-1.525-7.0806-0.68945-10.59 0.75199-3.5093 2.6722-6.8089 5.7637-9.9004l8.7754-8.7754zm46.756 0 8.7715 8.7754c3.0915 3.0915 5.0156 6.3911 5.7676 9.9004 0.83554 3.5093 0.60563 7.0388-0.68945 10.59-1.2115 3.5511-3.3863 6.8921-6.5195 10.025-3.0497 3.0497-6.3493 5.2244-9.9004 6.5195-3.551 1.2951-7.122 1.5664-10.715 0.81445-0.92058-0.18414-1.8262-0.45187-2.7188-0.79883l14.553-14.555-14.91-14.91 16.361-16.361zm-23.379 23.379 8.707 8.707-8.707 8.707-8.7051-8.707 8.7051-8.707z" stroke-width="2.2156" />
		</g>
	</g>
</svg>
